<svg width="80" height="88" viewBox="0 0 80 88" fill="none" xmlns="http://www.w3.org/2000/svg">
<g filter="url(#filter0_b_1_597)">
<path d="M0 47.8954C0 25.8618 17.9664 8 40 8C62.0336 8 80 25.8618 80 47.8954C80 69.929 62.0336 87.7908 40 87.7908C17.9664 87.7908 0 69.929 0 47.8954Z" fill="url(#paint0_radial_1_597)"/>
<path d="M0.5 47.8954C0.5 26.1396 18.2408 8.5 40 8.5C61.7592 8.5 79.5 26.1396 79.5 47.8954C79.5 69.6512 61.7592 87.2908 40 87.2908C18.2408 87.2908 0.5 69.6512 0.5 47.8954Z" stroke="url(#paint1_radial_1_597)"/>
<path d="M0.5 47.8954C0.5 26.1396 18.2408 8.5 40 8.5C61.7592 8.5 79.5 26.1396 79.5 47.8954C79.5 69.6512 61.7592 87.2908 40 87.2908C18.2408 87.2908 0.5 69.6512 0.5 47.8954Z" stroke="url(#paint2_radial_1_597)"/>
<path d="M0.5 47.8954C0.5 26.1396 18.2408 8.5 40 8.5C61.7592 8.5 79.5 26.1396 79.5 47.8954C79.5 69.6512 61.7592 87.2908 40 87.2908C18.2408 87.2908 0.5 69.6512 0.5 47.8954Z" stroke="url(#paint3_radial_1_597)"/>
</g>
<g filter="url(#filter1_f_1_597)">
<ellipse cx="39.7435" cy="29.4821" rx="25.3846" ry="16.3673" fill="url(#paint4_radial_1_597)" fill-opacity="0.2"/>
</g>
<path fill-rule="evenodd" clip-rule="evenodd" d="M46.2222 31.4075C48.931 31.4075 51.2374 33.1393 52.0919 35.5556H33.7778C31.0274 35.5556 28.3897 36.6482 26.4448 38.593C24.5 40.5379 23.4074 43.1756 23.4074 45.926V55.9438C22.1939 55.5144 21.1434 54.7194 20.4005 53.6682C19.6576 52.617 19.2589 51.3613 19.2593 50.0741V37.6297C19.2593 35.9795 19.9148 34.3968 21.0817 33.2299C22.2486 32.063 23.8313 31.4075 25.4815 31.4075H46.2222ZM54.5185 39.7038H33.7778C32.1276 39.7038 30.5449 40.3593 29.378 41.5262C28.2111 42.6931 27.5556 44.2758 27.5556 45.926V58.3704C27.5556 60.0207 28.2111 61.6033 29.378 62.7702C30.5449 63.9371 32.1276 64.5927 33.7778 64.5927H54.5185C56.1688 64.5927 57.7514 63.9371 58.9183 62.7702C60.0852 61.6033 60.7408 60.0207 60.7408 58.3704V45.926C60.7408 44.2758 60.0852 42.6931 58.9183 41.5262C57.7514 40.3593 56.1688 39.7038 54.5185 39.7038ZM48.2963 52.1482C48.2963 53.2484 47.8593 54.3035 47.0813 55.0814C46.3034 55.8593 45.2483 56.2964 44.1482 56.2964C43.048 56.2964 41.9929 55.8593 41.215 55.0814C40.4371 54.3035 40 53.2484 40 52.1482C40 51.0481 40.4371 49.993 41.215 49.215C41.9929 48.4371 43.048 48.0001 44.1482 48.0001C45.2483 48.0001 46.3034 48.4371 47.0813 49.215C47.8593 49.993 48.2963 51.0481 48.2963 52.1482Z" fill="url(#paint5_linear_1_597)"/>
<defs>
<filter id="filter0_b_1_597" x="-5" y="3" width="90" height="89.7908" filterUnits="userSpaceOnUse" color-interpolation-filters="sRGB">
<feFlood flood-opacity="0" result="BackgroundImageFix"/>
<feGaussianBlur in="BackgroundImageFix" stdDeviation="2.5"/>
<feComposite in2="SourceAlpha" operator="in" result="effect1_backgroundBlur_1_597"/>
<feBlend mode="normal" in="SourceGraphic" in2="effect1_backgroundBlur_1_597" result="shape"/>
</filter>
<filter id="filter1_f_1_597" x="1.40435" y="0.160212" width="76.6784" height="58.6437" filterUnits="userSpaceOnUse" color-interpolation-filters="sRGB">
<feFlood flood-opacity="0" result="BackgroundImageFix"/>
<feBlend mode="normal" in="SourceGraphic" in2="BackgroundImageFix" result="shape"/>
<feGaussianBlur stdDeviation="6.47727" result="effect1_foregroundBlur_1_597"/>
</filter>
<radialGradient id="paint0_radial_1_597" cx="0" cy="0" r="1" gradientUnits="userSpaceOnUse" gradientTransform="translate(6.69204 8) rotate(47.9449) scale(119.431 86.7751)">
<stop stop-color="white" stop-opacity="0.36"/>
<stop offset="1" stop-color="white" stop-opacity="0"/>
</radialGradient>
<radialGradient id="paint1_radial_1_597" cx="0" cy="0" r="1" gradientUnits="userSpaceOnUse" gradientTransform="translate(-42.5965 16.1628) rotate(35.0407) scale(92.1512 54.3882)">
<stop stop-color="white"/>
<stop offset="1" stop-color="white" stop-opacity="0.06"/>
</radialGradient>
<radialGradient id="paint2_radial_1_597" cx="0" cy="0" r="1" gradientUnits="userSpaceOnUse" gradientTransform="translate(103.421 61.4008) rotate(161.385) scale(66.8428 45.1784)">
<stop stop-color="#8470FF"/>
<stop offset="1" stop-color="#865CFF" stop-opacity="0"/>
</radialGradient>
<radialGradient id="paint3_radial_1_597" cx="0" cy="0" r="1" gradientUnits="userSpaceOnUse" gradientTransform="translate(40.871 -10.2359) rotate(47.2149) scale(44.643 32.0879)">
<stop/>
<stop offset="1" stop-color="white" stop-opacity="0"/>
</radialGradient>
<radialGradient id="paint4_radial_1_597" cx="0" cy="0" r="1" gradientUnits="userSpaceOnUse" gradientTransform="translate(39.7435 13.1147) rotate(90) scale(24.2566 37.625)">
<stop stop-color="white"/>
<stop offset="1" stop-color="white" stop-opacity="0"/>
</radialGradient>
<linearGradient id="paint5_linear_1_597" x1="26.821" y1="80.8396" x2="73.1833" y2="35.7123" gradientUnits="userSpaceOnUse">
<stop stop-color="#982DEC"/>
<stop offset="0.572917" stop-color="#DC8DF8"/>
<stop offset="0.895833" stop-color="#A9C4F3"/>
</linearGradient>
</defs>
</svg>
