<svg width="80" height="88" viewBox="0 0 80 88" fill="none" xmlns="http://www.w3.org/2000/svg">
<g filter="url(#filter0_b_1_580)">
<path d="M0 47.8954C0 25.8618 17.9664 8 40 8C62.0336 8 80 25.8618 80 47.8954C80 69.929 62.0336 87.7908 40 87.7908C17.9664 87.7908 0 69.929 0 47.8954Z" fill="url(#paint0_radial_1_580)"/>
<path d="M0.5 47.8954C0.5 26.1396 18.2408 8.5 40 8.5C61.7592 8.5 79.5 26.1396 79.5 47.8954C79.5 69.6512 61.7592 87.2908 40 87.2908C18.2408 87.2908 0.5 69.6512 0.5 47.8954Z" stroke="url(#paint1_radial_1_580)"/>
<path d="M0.5 47.8954C0.5 26.1396 18.2408 8.5 40 8.5C61.7592 8.5 79.5 26.1396 79.5 47.8954C79.5 69.6512 61.7592 87.2908 40 87.2908C18.2408 87.2908 0.5 69.6512 0.5 47.8954Z" stroke="url(#paint2_radial_1_580)"/>
<path d="M0.5 47.8954C0.5 26.1396 18.2408 8.5 40 8.5C61.7592 8.5 79.5 26.1396 79.5 47.8954C79.5 69.6512 61.7592 87.2908 40 87.2908C18.2408 87.2908 0.5 69.6512 0.5 47.8954Z" stroke="url(#paint3_radial_1_580)"/>
</g>
<g filter="url(#filter1_f_1_580)">
<ellipse cx="39.7435" cy="29.4821" rx="25.3846" ry="16.3673" fill="url(#paint4_radial_1_580)" fill-opacity="0.2"/>
</g>
<path d="M35.0223 35.5556C34.3622 35.5556 33.7291 35.8178 33.2624 36.2846C32.7956 36.7513 32.5334 37.3844 32.5334 38.0445C32.5334 38.7046 32.7956 39.3376 33.2624 39.8044C33.7291 40.2712 34.3622 40.5334 35.0223 40.5334H48.9252L45.7071 43.7515C45.2537 44.2209 45.0028 44.8496 45.0085 45.5022C45.0142 46.1548 45.2759 46.779 45.7374 47.2405C46.1988 47.7019 46.8231 47.9637 47.4757 47.9694C48.1283 47.975 48.7569 47.7242 49.2264 47.2708L56.693 39.8041C57.1596 39.3374 57.4217 38.7045 57.4217 38.0445C57.4217 37.3845 57.1596 36.7516 56.693 36.2848L49.2264 28.8182C48.9968 28.5805 48.7221 28.3909 48.4185 28.2604C48.1148 28.13 47.7882 28.0613 47.4578 28.0584C47.1273 28.0556 46.7995 28.1185 46.4937 28.2437C46.1878 28.3688 45.9099 28.5536 45.6762 28.7873C45.4425 29.021 45.2577 29.2989 45.1326 29.6048C45.0074 29.9107 44.9445 30.2384 44.9473 30.5689C44.9502 30.8993 45.0189 31.2259 45.1493 31.5296C45.2797 31.8332 45.4694 32.1079 45.7071 32.3375L48.9252 35.5556H35.0223Z" fill="url(#paint5_linear_1_580)"/>
<path d="M44.9778 60.4445C45.6379 60.4445 46.271 60.1823 46.7377 59.7155C47.2045 59.2487 47.4667 58.6157 47.4667 57.9556C47.4667 57.2955 47.2045 56.6624 46.7377 56.1957C46.271 55.7289 45.6379 55.4667 44.9778 55.4667H31.0749L34.293 52.2486C34.5308 52.019 34.7204 51.7443 34.8508 51.4407C34.9812 51.137 35.0499 50.8104 35.0528 50.48C35.0556 50.1495 34.9927 49.8218 34.8675 49.5159C34.7424 49.21 34.5576 48.9321 34.3239 48.6984C34.0902 48.4648 33.8123 48.2799 33.5064 48.1548C33.2006 48.0297 32.8728 47.9667 32.5423 47.9696C32.2119 47.9724 31.8853 48.0411 31.5816 48.1715C31.278 48.302 31.0033 48.4916 30.7737 48.7293L23.3071 56.196C22.8405 56.6627 22.5784 57.2956 22.5784 57.9556C22.5784 58.6156 22.8405 59.2485 23.3071 59.7152L30.7737 67.1819C31.2432 67.6353 31.8719 67.8861 32.5244 67.8805C33.177 67.8748 33.8013 67.613 34.2627 67.1516C34.7242 66.6901 34.9859 66.0659 34.9916 65.4133C34.9973 64.7607 34.7464 64.132 34.293 63.6626L31.0749 60.4445H44.9778Z" fill="url(#paint6_linear_1_580)"/>
<defs>
<filter id="filter0_b_1_580" x="-5" y="3" width="90" height="89.7908" filterUnits="userSpaceOnUse" color-interpolation-filters="sRGB">
<feFlood flood-opacity="0" result="BackgroundImageFix"/>
<feGaussianBlur in="BackgroundImageFix" stdDeviation="2.5"/>
<feComposite in2="SourceAlpha" operator="in" result="effect1_backgroundBlur_1_580"/>
<feBlend mode="normal" in="SourceGraphic" in2="effect1_backgroundBlur_1_580" result="shape"/>
</filter>
<filter id="filter1_f_1_580" x="1.40435" y="0.160212" width="76.6784" height="58.6437" filterUnits="userSpaceOnUse" color-interpolation-filters="sRGB">
<feFlood flood-opacity="0" result="BackgroundImageFix"/>
<feBlend mode="normal" in="SourceGraphic" in2="BackgroundImageFix" result="shape"/>
<feGaussianBlur stdDeviation="6.47727" result="effect1_foregroundBlur_1_580"/>
</filter>
<radialGradient id="paint0_radial_1_580" cx="0" cy="0" r="1" gradientUnits="userSpaceOnUse" gradientTransform="translate(6.69204 8) rotate(47.9449) scale(119.431 86.7751)">
<stop stop-color="white" stop-opacity="0.36"/>
<stop offset="1" stop-color="white" stop-opacity="0"/>
</radialGradient>
<radialGradient id="paint1_radial_1_580" cx="0" cy="0" r="1" gradientUnits="userSpaceOnUse" gradientTransform="translate(-42.5965 16.1628) rotate(35.0407) scale(92.1512 54.3882)">
<stop stop-color="white"/>
<stop offset="1" stop-color="white" stop-opacity="0.06"/>
</radialGradient>
<radialGradient id="paint2_radial_1_580" cx="0" cy="0" r="1" gradientUnits="userSpaceOnUse" gradientTransform="translate(103.421 61.4008) rotate(161.385) scale(66.8428 45.1784)">
<stop stop-color="#8470FF"/>
<stop offset="1" stop-color="#865CFF" stop-opacity="0"/>
</radialGradient>
<radialGradient id="paint3_radial_1_580" cx="0" cy="0" r="1" gradientUnits="userSpaceOnUse" gradientTransform="translate(40.871 -10.2359) rotate(47.2149) scale(44.643 32.0879)">
<stop/>
<stop offset="1" stop-color="white" stop-opacity="0"/>
</radialGradient>
<radialGradient id="paint4_radial_1_580" cx="0" cy="0" r="1" gradientUnits="userSpaceOnUse" gradientTransform="translate(39.7435 13.1147) rotate(90) scale(24.2566 37.625)">
<stop stop-color="white"/>
<stop offset="1" stop-color="white" stop-opacity="0"/>
</radialGradient>
<linearGradient id="paint5_linear_1_580" x1="28.93" y1="87.3769" x2="80.7251" y2="52.0872" gradientUnits="userSpaceOnUse">
<stop stop-color="#982DEC"/>
<stop offset="0.572917" stop-color="#DC8DF8"/>
<stop offset="0.895833" stop-color="#A9C4F3"/>
</linearGradient>
<linearGradient id="paint6_linear_1_580" x1="28.93" y1="87.3769" x2="80.7251" y2="52.0872" gradientUnits="userSpaceOnUse">
<stop stop-color="#982DEC"/>
<stop offset="0.572917" stop-color="#DC8DF8"/>
<stop offset="0.895833" stop-color="#A9C4F3"/>
</linearGradient>
</defs>
</svg>
