<svg width="2660" height="1758" viewBox="0 0 2660 1758" fill="none" xmlns="http://www.w3.org/2000/svg">
<g filter="url(#filter0_f_20_49)">
<path d="M1297.27 1357.55L1278.08 1110.28C1669.35 1052.85 1968.12 754.869 1944.15 445.976L2257.36 400C2291.9 845.207 1861.2 1274.77 1297.27 1357.55Z" fill="url(#paint0_linear_20_49)"/>
</g>
<g filter="url(#filter1_f_20_49)">
<path d="M1287.27 1228.65L1271.14 1020.82C1599.93 972.559 1851.05 722.1 1830.91 462.534L2094.16 423.89C2123.2 798.087 1761.17 1159.09 1287.27 1228.65Z" fill="url(#paint1_linear_20_49)"/>
</g>
<g filter="url(#filter2_f_20_49)">
<path d="M1485.38 1329.87L1466.19 1082.6C1074.93 1140.04 737.17 935.497 713.204 626.603L400 672.579C434.542 1117.79 921.449 1412.65 1485.38 1329.87Z" fill="url(#paint2_linear_20_49)"/>
</g>
<g filter="url(#filter3_f_20_49)">
<path d="M1297.27 1357.55L1278.08 1110.28C1669.35 1052.85 1968.12 754.869 1944.15 445.976L2257.36 400C2291.9 845.207 1861.2 1274.77 1297.27 1357.55Z" fill="url(#paint3_linear_20_49)"/>
</g>
<g filter="url(#filter4_f_20_49)">
<path d="M1287.27 1228.65L1271.14 1020.82C1599.93 972.559 1851.05 722.1 1830.91 462.534L2094.16 423.89C2123.2 798.087 1761.17 1159.09 1287.27 1228.65Z" fill="url(#paint4_linear_20_49)"/>
</g>
<g filter="url(#filter5_f_20_49)">
<path d="M1485.38 1329.87L1466.19 1082.6C1074.93 1140.04 737.17 935.497 713.204 626.603L400 672.579C434.542 1117.79 921.449 1412.65 1485.38 1329.87Z" fill="url(#paint5_linear_20_49)"/>
</g>
<defs>
<filter id="filter0_f_20_49" x="878.083" y="0" width="1781.21" height="1757.55" filterUnits="userSpaceOnUse" color-interpolation-filters="sRGB">
<feFlood flood-opacity="0" result="BackgroundImageFix"/>
<feBlend mode="normal" in="SourceGraphic" in2="BackgroundImageFix" result="shape"/>
<feGaussianBlur stdDeviation="200" result="effect1_foregroundBlur_20_49"/>
</filter>
<filter id="filter1_f_20_49" x="871.143" y="23.8906" width="1624.65" height="1604.76" filterUnits="userSpaceOnUse" color-interpolation-filters="sRGB">
<feFlood flood-opacity="0" result="BackgroundImageFix"/>
<feBlend mode="normal" in="SourceGraphic" in2="BackgroundImageFix" result="shape"/>
<feGaussianBlur stdDeviation="200" result="effect1_foregroundBlur_20_49"/>
</filter>
<filter id="filter2_f_20_49" x="0" y="226.604" width="1885.38" height="1517.19" filterUnits="userSpaceOnUse" color-interpolation-filters="sRGB">
<feFlood flood-opacity="0" result="BackgroundImageFix"/>
<feBlend mode="normal" in="SourceGraphic" in2="BackgroundImageFix" result="shape"/>
<feGaussianBlur stdDeviation="200" result="effect1_foregroundBlur_20_49"/>
</filter>
<filter id="filter3_f_20_49" x="878.083" y="0" width="1781.21" height="1757.55" filterUnits="userSpaceOnUse" color-interpolation-filters="sRGB">
<feFlood flood-opacity="0" result="BackgroundImageFix"/>
<feBlend mode="normal" in="SourceGraphic" in2="BackgroundImageFix" result="shape"/>
<feGaussianBlur stdDeviation="200" result="effect1_foregroundBlur_20_49"/>
</filter>
<filter id="filter4_f_20_49" x="871.143" y="23.8906" width="1624.65" height="1604.76" filterUnits="userSpaceOnUse" color-interpolation-filters="sRGB">
<feFlood flood-opacity="0" result="BackgroundImageFix"/>
<feBlend mode="normal" in="SourceGraphic" in2="BackgroundImageFix" result="shape"/>
<feGaussianBlur stdDeviation="200" result="effect1_foregroundBlur_20_49"/>
</filter>
<filter id="filter5_f_20_49" x="0" y="226.604" width="1885.38" height="1517.19" filterUnits="userSpaceOnUse" color-interpolation-filters="sRGB">
<feFlood flood-opacity="0" result="BackgroundImageFix"/>
<feBlend mode="normal" in="SourceGraphic" in2="BackgroundImageFix" result="shape"/>
<feGaussianBlur stdDeviation="200" result="effect1_foregroundBlur_20_49"/>
</filter>
<linearGradient id="paint0_linear_20_49" x1="1265.93" y1="953.816" x2="2294.15" y2="874.04" gradientUnits="userSpaceOnUse">
<stop stop-color="#9403FD"/>
<stop offset="1" stop-color="#00ADFE"/>
</linearGradient>
<linearGradient id="paint1_linear_20_49" x1="1260.93" y1="889.38" x2="2125.04" y2="822.337" gradientUnits="userSpaceOnUse">
<stop stop-color="#9403FD"/>
<stop offset="1" stop-color="#00ADFE"/>
</linearGradient>
<linearGradient id="paint2_linear_20_49" x1="1454.07" y1="926.127" x2="425.851" y2="1005.9" gradientUnits="userSpaceOnUse">
<stop stop-color="#FF12DC"/>
<stop offset="1" stop-color="#FFB912"/>
</linearGradient>
<linearGradient id="paint3_linear_20_49" x1="1265.93" y1="953.816" x2="2294.15" y2="874.04" gradientUnits="userSpaceOnUse">
<stop stop-color="#9403FD"/>
<stop offset="1" stop-color="#00ADFE"/>
</linearGradient>
<linearGradient id="paint4_linear_20_49" x1="1260.93" y1="889.38" x2="2125.04" y2="822.337" gradientUnits="userSpaceOnUse">
<stop stop-color="#9403FD"/>
<stop offset="1" stop-color="#00ADFE"/>
</linearGradient>
<linearGradient id="paint5_linear_20_49" x1="1454.07" y1="926.127" x2="425.851" y2="1005.9" gradientUnits="userSpaceOnUse">
<stop stop-color="#FF12DC"/>
<stop offset="1" stop-color="#FFB912"/>
</linearGradient>
</defs>
</svg>
